<?xml version="1.0" encoding="utf-8"?>
<!-- Generator: Adobe Illustrator 18.0.0, SVG Export Plug-In . SVG Version: 6.00 Build 0)  -->
<!DOCTYPE svg PUBLIC "-//W3C//DTD SVG 1.1//EN" "http://www.w3.org/Graphics/SVG/1.1/DTD/svg11.dtd">
<svg version="1.1" id="Layer_1" xmlns="http://www.w3.org/2000/svg" xmlns:xlink="http://www.w3.org/1999/xlink" x="0px" y="0px"
	 viewBox="0 0 204.3 136.12" enable-background="new 0 0 204.3 136.12" xml:space="preserve">
<path fill="#484647" d="M43.72,107.61H0V0h13.71v96.19h30.01V107.61z"/>
<path fill="#484647" d="M95.78,87.44c0,14.65-8.22,21.98-24.66,21.98c-16.49,0-24.74-7.33-24.74-21.98V50.65
	c0-14.6,8.25-21.9,24.74-21.9c16.44,0,24.66,7.3,24.66,21.9v20.17H58.83v16.67c0,7.74,4.1,11.61,12.29,11.61
	c8.14,0,12.21-3.87,12.21-11.62v-7.75h12.45V87.44z M83.33,61.13V50.65c0-7.72-4.07-11.58-12.21-11.58
	c-8.19,0-12.29,3.86-12.29,11.58v10.48H83.33z"/>
<path fill="#484647" d="M149.17,107.61h-12.13v-4.96c-3.36,4.26-8.69,6.38-15.99,6.38c-13.76,0-20.64-6.01-20.64-18.04V81.3
	c0-4.73,1-8.34,2.99-10.83c2-2.49,5.46-4.53,10.4-6.1l22.45-7.09v-7.41c0-7.19-3.6-10.79-10.79-10.79
	c-8.09,0-12.13,3.44-12.13,10.32v6.3h-11.82v-5.99c0-13.76,8.03-20.64,24.11-20.64c15.33,0,23,6.83,23,20.48v51.6
	C148.62,103.04,148.81,105.19,149.17,107.61z M136.26,88.07v-20.8l-16.47,4.96c-4.62,1.42-6.93,4.75-6.93,10.01v7.64
	c0,6.67,3.7,10,11.11,10C132.16,99.89,136.26,95.95,136.26,88.07z"/>
<path fill="#484647" d="M204.7,87.12c0,14.71-7.2,22.06-21.58,22.06c-5.83,0-10.85-1.76-15.05-5.28v32.22h-12.05V30.48h11.42v4.49
	c3.78-4.04,8.85-6.07,15.21-6.07c14.7,0,22.06,7.25,22.06,21.74V87.12z M192.48,87.28V50.34c0-7.72-4.1-11.58-12.29-11.58
	c-8.09,0-12.13,3.86-12.13,11.58v36.94c0,7.72,4.04,11.58,12.13,11.58C188.39,98.86,192.48,95,192.48,87.28z"/>
</svg>
